<svg width="57" height="57" viewBox="0 0 57 57" fill="none" xmlns="http://www.w3.org/2000/svg">
<path d="M27 17C27.5523 17 28 16.5523 28 16C28 15.4477 27.5523 15 27 15L27 17ZM43 27C43 26.4477 42.5523 26 42 26C41.4477 26 41 26.4477 41 27L43 27ZM42 42L41 42L42 42ZM14.5 42L15.5 42L14.5 42ZM15.5 43L15.5 44L15.5 43ZM14.5 17L13.5 17L14.5 17ZM22.691 35.4512L21.691 35.4414L22.691 35.4512ZM22.7497 29.504L21.7497 29.4941L22.7497 29.504ZM29.6518 34.5443L29.9656 35.4937L29.6518 34.5443ZM37.2674 11.6922L42.1989 15.2934L43.3784 13.6783L38.4468 10.077L37.2674 11.6922ZM29.338 33.5948L23.6909 35.4611L24.3185 37.3601L29.9656 35.4937L29.338 33.5948ZM23.6909 35.4611L23.7496 29.5139L21.7497 29.4941L21.691 35.4414L23.6909 35.4611ZM23.8458 29.2239L33.6989 15.7311L32.0837 14.5516L22.2306 28.0445L23.8458 29.2239ZM33.6989 15.7311L36.5687 11.8012L34.9535 10.6217L32.0837 14.5516L33.6989 15.7311ZM42.3078 15.9921L39.438 19.922L41.0532 21.1015L43.923 17.1716L42.3078 15.9921ZM39.438 19.922L29.5849 33.4149L31.2001 34.5944L41.0532 21.1015L39.438 19.922ZM32.3016 15.9489L39.6559 21.3193L40.8353 19.7042L33.4811 14.3337L32.3016 15.9489ZM27 15L15.5 15L15.5 17L27 17L27 15ZM13.5 17L13.5 42L15.5 42L15.5 17L13.5 17ZM15.5 44L41 44L41 42L15.5 42L15.5 44ZM43 42L43 27L41 27L41 42L43 42ZM41 44C42.1046 44 43 43.1046 43 42L41 42L41 44ZM13.5 42C13.5 43.1046 14.3954 44 15.5 44L15.5 42L15.5 42L13.5 42ZM15.5 15C14.3954 15 13.5 15.8954 13.5 17L15.5 17L15.5 17L15.5 15ZM23.6909 35.4611L21.691 35.4414C21.6775 36.8126 23.0165 37.7904 24.3185 37.3601L23.6909 35.4611ZM23.7496 29.5139C23.7506 29.4096 23.7843 29.3082 23.8458 29.2239L22.2306 28.0445C21.923 28.4657 21.7549 28.9726 21.7497 29.4941L23.7496 29.5139ZM29.9656 35.4937C30.4608 35.3301 30.8925 35.0156 31.2001 34.5944L29.5849 33.4149C29.5234 33.4991 29.437 33.562 29.338 33.5948L29.9656 35.4937ZM42.1989 15.2934C42.4219 15.4563 42.4707 15.7691 42.3078 15.9921L43.923 17.1716C44.7372 16.0565 44.4934 14.4925 43.3784 13.6783L42.1989 15.2934ZM38.4468 10.077C37.3318 9.26278 35.7678 9.50662 34.9535 10.6217L36.5687 11.8012C36.7316 11.5781 37.0444 11.5294 37.2674 11.6922L38.4468 10.077Z" fill="black"/>
</svg>
