<svg width="60" height="93" viewBox="0 0 60 93" fill="none" xmlns="http://www.w3.org/2000/svg">
<path d="M43.9583 25.2897L43.9627 25.304C44.6361 27.4141 45 29.6636 45 32C45 44.1503 35.1503 54 23 54C10.8497 54 1 44.1503 1 32C1 29.6636 1.36386 27.4141 2.03727 25.304L2.04173 25.2897L9.02714 2.21031L8.07002 1.92062L9.02714 2.21031C9.15481 1.7885 9.54356 1.5 9.98426 1.5H36.0157C36.4564 1.5 36.8452 1.7885 36.9729 2.21031L43.9583 25.2897Z" stroke="white" stroke-width="2" stroke-linecap="round" stroke-linejoin="round"/>
<path d="M45 31.5H15M23 54.5V78M23 78C17.8063 85.1869 13.8579 87.8417 6 91.5H39.5C31.6503 87.2477 27.9098 84.3851 23 78Z" stroke="white" stroke-width="2" stroke-linecap="round" stroke-linejoin="round"/>
<path d="M49.9246 79.3493V63.5001M42 71.4247H57.8492" stroke="white" stroke-width="4" stroke-linecap="round" stroke-linejoin="round"/>
</svg>
