<svg width="46" height="93" viewBox="0 0 46 93" fill="none" xmlns="http://www.w3.org/2000/svg">
<path d="M43.9583 24.7897L43.9627 24.804C44.6361 26.9141 45 29.1636 45 31.5C45 43.6503 35.1503 53.5 23 53.5C10.8497 53.5 1 43.6503 1 31.5C1 29.1636 1.36386 26.9141 2.03727 24.804L2.04173 24.7897L9.02714 1.71031L8.07002 1.42062L9.02714 1.71031C9.15481 1.2885 9.54356 1 9.98426 1H36.0157C36.4564 1 36.8452 1.2885 36.9729 1.71031L43.9583 24.7897Z" stroke="black" stroke-width="2" stroke-linecap="round" stroke-linejoin="round"/>
<path d="M45 31H15M23 54V77.5M23 77.5C17.8063 84.6869 13.8579 87.3417 6 91H39.5C31.6503 86.7477 27.9098 83.8851 23 77.5Z" stroke="black" stroke-width="2" stroke-linecap="round" stroke-linejoin="round"/>
<path d="M49.9246 78.8493V63.0001M42 70.9247H57.8492" stroke="black" stroke-width="4" stroke-linecap="round" stroke-linejoin="round"/>
</svg>
