<svg width="46" height="93" viewBox="0 0 46 93" fill="none" xmlns="http://www.w3.org/2000/svg">
<path d="M46 1.5C21.1472 1.5 1 21.6472 1 46.5C1 69.3185 17.9838 88.1701 40 91.1035" stroke="black" stroke-width="2" stroke-linecap="round" stroke-linejoin="round"/>
<path d="M34 22V71.5M22.5 32.5V61" stroke="black" stroke-width="2" stroke-linecap="round" stroke-linejoin="round"/>
<path d="M45 11.5C25.1177 11.5 9 27.6177 9 47.5C9 67.3823 25.1177 83.5 45 83.5C48.2883 83.5 51.4736 83.0591 54.5 82.2333" stroke="black" stroke-width="2" stroke-linecap="round" stroke-linejoin="round"/>
<path d="M89.9583 25.7897L89.9627 25.804C90.6361 27.9141 91 30.1636 91 32.5C91 44.6503 81.1503 54.5 69 54.5C56.8497 54.5 47 44.6503 47 32.5C47 30.1636 47.3639 27.9141 48.0373 25.804L48.0417 25.7897L55.0271 2.71031L54.07 2.42062L55.0271 2.71031C55.1548 2.2885 55.5436 2 55.9843 2H82.0157C82.4564 2 82.8452 2.2885 82.9729 2.71031L89.9583 25.7897Z" stroke="black" stroke-width="2" stroke-linecap="round" stroke-linejoin="round"/>
<path d="M91 32H61M69 55V78.5M69 78.5C63.8063 85.6869 59.8579 88.3417 52 92H85.5C77.6503 87.7477 73.9098 84.8851 69 78.5Z" stroke="black" stroke-width="2" stroke-linecap="round" stroke-linejoin="round"/>
<circle cx="48.5" cy="70" r="3.5" fill="black"/>
</svg>
