<svg width="24" height="22" viewBox="0 0 24 22" fill="none" xmlns="http://www.w3.org/2000/svg">
<path fill-rule="evenodd" clip-rule="evenodd" d="M21 8.88877C21 12.141 18.3635 14.7775 15.1112 14.7775C11.8589 14.7775 9.22243 12.141 9.22243 8.88877C9.22243 5.63649 11.8589 3 15.1112 3C18.3635 3 21 5.63649 21 8.88877ZM24 8.88877C24 13.7979 20.0203 17.7775 15.1112 17.7775C12.9762 17.7775 11.017 17.0248 9.48457 15.7703L3.07017 21.4808C2.45142 22.0317 1.50327 21.9766 0.952419 21.3579C0.401568 20.7391 0.456613 19.791 1.07537 19.2401L7.51494 13.5072C6.69485 12.1612 6.22243 10.5802 6.22243 8.88877C6.22243 3.97964 10.2021 0 15.1112 0C20.0203 0 24 3.97964 24 8.88877Z" fill="#C4C4C4"/>
</svg>
