<svg width="22" height="30" viewBox="0 0 22 30" fill="none" xmlns="http://www.w3.org/2000/svg">
<mask id="path-2-inside-1" fill="white">
<rect width="22" height="30" rx="1"/>
</mask>
<rect width="22" height="30" rx="1" stroke="black" stroke-width="3" mask="url(#path-2-inside-1)"/>
<path d="M11.5 11H21" stroke="black" stroke-width="1.5" stroke-linecap="round" stroke-linejoin="round"/>
<path d="M1.5 8C5.64214 8 9 11.3579 9 15.5C9 19.6421 5.64214 23 1.5 23" stroke="black"/>
<path d="M3.02677 15.3891L6.7269 13.4664C6.79293 13.4321 6.85673 13.4642 6.87704 13.5093C7.21645 14.2626 7.35247 14.8683 7.34026 15.4626C7.32794 16.0622 7.16436 16.6805 6.85667 17.4618C6.83431 17.5186 6.76191 17.5518 6.69462 17.5168L3.02677 15.6109C2.93695 15.5642 2.93695 15.4358 3.02677 15.3891Z" stroke="black" stroke-width="0.75" stroke-linecap="round" stroke-linejoin="round"/>
<path d="M2.66733 17.1456C2.66284 17.0445 2.77412 16.9803 2.85945 17.0347L6.28602 19.2213C6.35473 19.2651 6.35775 19.3528 6.3102 19.3998C5.64555 20.0564 5.10798 20.4792 4.59453 20.7704C4.08442 21.0598 3.58278 21.2279 2.97815 21.3576C2.92253 21.3695 2.85308 21.3283 2.8495 21.2476L2.66733 17.1456Z" stroke="black" stroke-width="0.75" stroke-linecap="round" stroke-linejoin="round"/>
<path d="M2.66732 13.7563L2.84957 9.6527C2.85314 9.57246 2.92176 9.53164 2.9772 9.54345C3.74905 9.70781 4.3297 9.92177 4.84143 10.2242C5.35443 10.5273 5.81581 10.9297 6.3384 11.493C6.3807 11.5386 6.37765 11.6222 6.30968 11.6655L2.85944 13.8672C2.77411 13.9217 2.66283 13.8574 2.66732 13.7563Z" stroke="black" stroke-width="0.75" stroke-linecap="round" stroke-linejoin="round"/>
<path fill-rule="evenodd" clip-rule="evenodd" d="M3 24.9451C7.49995 24.4476 11 20.6326 11 16C11 14.9481 10.8195 13.9383 10.4879 13H18C18.5523 13 19 13.4477 19 14V26C19 26.5523 18.5523 27 18 27H4C3.44772 27 3 26.5523 3 26V24.9451Z" fill="#88220C"/>
</svg>
