<svg width="46" height="93" viewBox="0 0 46 93" fill="none" xmlns="http://www.w3.org/2000/svg">
<path d="M43.9583 25.2897L43.9627 25.304C44.6361 27.4141 45 29.6636 45 32C45 44.1503 35.1503 54 23 54C10.8497 54 1 44.1503 1 32C1 29.6636 1.36386 27.4141 2.03727 25.304L2.04173 25.2897L9.02714 2.21031L8.07002 1.92062L9.02714 2.21031C9.15481 1.7885 9.54356 1.5 9.98426 1.5H36.0157C36.4564 1.5 36.8452 1.7885 36.9729 2.21031L43.9583 25.2897Z" stroke="black" stroke-width="2" stroke-linecap="round" stroke-linejoin="round"/>
<path d="M23 50.5C32.1812 50.5 39.757 44.3898 40.8615 36.4946C41.0145 35.4007 40.1046 34.5 39 34.5H23H7C5.89543 34.5 4.98547 35.4007 5.1385 36.4946C6.24302 44.3898 13.8188 50.5 23 50.5Z" fill="#880C2D"/>
<path d="M45 31.5H15M23 54.5V78M23 78C17.8063 85.1869 13.8579 87.8417 6 91.5H39.5C31.6503 87.2477 27.9098 84.3851 23 78Z" stroke="black" stroke-width="2" stroke-linecap="round" stroke-linejoin="round"/>
</svg>
