<svg width="46" height="93" viewBox="0 0 46 93" fill="none" xmlns="http://www.w3.org/2000/svg">
<path fill-rule="evenodd" clip-rule="evenodd" d="M10.8969 10.25H8.25H5.25C4.83579 10.25 4.5 10.5858 4.5 11C4.5 11.4142 4.83579 11.75 5.25 11.75H8.25H10.9552L11.4999 25.7771C11.4854 28.2499 9.47626 30.25 7 30.25C4.52375 30.25 2.51464 28.2499 2.50008 25.7771L3.44288 1.5H10.5571L10.8969 10.25ZM1 25.75L1.96267 0.961195C1.98352 0.424413 2.42473 0 2.96192 0H11.0381C11.5753 0 12.0165 0.424412 12.0373 0.961194L13 25.75C13 29.0637 10.3137 31.75 7 31.75C3.68629 31.75 1 29.0637 1 25.75Z" fill="black"/>
<path d="M10.5 25C10.5 27.2091 8.933 29 7 29C5.067 29 3.5 27.2091 3.5 25L4 13H10L10.5 25Z" fill="#E6DA9D"/>
<path d="M7 31V54M1 54H13" stroke="black" stroke-width="1.5" stroke-linecap="round" stroke-linejoin="round"/>
</svg>
