<svg width="28" height="56" viewBox="0 0 28 56" fill="none" xmlns="http://www.w3.org/2000/svg">
<path d="M26.6224 15.0264L26.6223 15.0264L26.6258 15.0372C27.031 16.298 27.25 17.6421 27.25 19.0385C27.25 26.2966 21.3228 32.1896 14 32.1896C6.67721 32.1896 0.75 26.2966 0.75 19.0385C0.75 17.6421 0.968989 16.298 1.37422 15.0372L1.3743 15.0372L1.37761 15.0264L5.45944 1.63553C5.6198 1.10946 6.10515 0.75 6.65512 0.75H21.3449C21.8948 0.75 22.3802 1.10946 22.5406 1.63553L26.6224 15.0264Z" stroke="black" stroke-width="1.5" stroke-linecap="round" stroke-linejoin="round"/>
<path d="M14 30.2198C19.2813 30.2198 23.6898 26.9218 24.7261 22.5319C24.9798 21.4569 24.0611 20.5494 22.9565 20.5494H14H5.04349C3.93892 20.5494 3.02017 21.4569 3.27394 22.5319C4.31021 26.9218 8.71874 30.2198 14 30.2198Z" fill="#E6DA9D"/>
<path d="M26.3913 18.7363H8.13042M14 32.6374V46.8407M14 46.8407C10.8386 51.1844 8.43525 52.789 3.65216 55H24.0435C19.2654 52.4299 16.9886 50.6998 14 46.8407Z" stroke="black" stroke-width="1.5" stroke-linecap="round" stroke-linejoin="round"/>
</svg>
